# xmcd
#
# Track frame offsets:
# 150
# 1155
# 15724
# 31797
# 58368
# 100752
# 113280
# 123605
# 150320
# 170168
# 191228
#
# Disc length: 2911 seconds
#
#
# Revision: 0
# Processed by: cddbd v1.5.2PL0 Copyright (c) Steve Scherf et al.
# Submitted via: FreeRIP 2.951 
#
DISCID=830b5d0b
DTITLE=The Mighty Orq - Ghost Train - Live at the Big Easy
DYEAR=2004
DGENRE=Rhythmic Soul
TTITLE0=Introduction
TTITLE1=Let Me Have My Fun
TTITLE2=Too Sorry
TTITLE3=Sweet In Between
TTITLE4=Preachin' Blues/Her Mind Is Gone
TTITLE5=Amazing Grace
TTITLE6=Ghost Train
TTITLE7=Birds Nest on the Ground
TTITLE8=One More Song
TTITLE9=You're In Love (That's Alright)
TTITLE10=I Believe
EXTD=
EXTT0=
EXTT1=
EXTT2=
EXTT3=
EXTT4=
EXTT5=
EXTT6=
EXTT7=
EXTT8=
EXTT9=
EXTT10=
PLAYORDER=
